# xmcd CD database file
#
# Track frame offsets:
#	150
#	29981
#	59524
#	79752
#	107954
#	134229
#	156469
#	185375
#	208401
#	230487
#	254001
#	286275
#
# Disc length: 4148 seconds
#
# Revision: 0
# Processed by: cddbd v1.5.2PL0 Copyright (c) Steve Scherf et al.
# Submitted via: CDex 1.50
#
DISCID=c810320c
DTITLE=Harry Allen - The Harry Allen Quartet
DYEAR=2003
DGENRE=Jazz
TTITLE0=Ev'rything I've got
TTITLE1=I've heard that song before
TTITLE2=The Note
TTITLE3=Idaho
TTITLE4=It never entered my mind
TTITLE5=Paper Doll
TTITLE6=Doodle Oodle
TTITLE7=Chuck's Lamnet
TTITLE8=Autumn's Nocturne
TTITLE9=You'n Me
TTITLE10=The best is yet to come
TTITLE11=Mr. George
EXTD=YEAR: 2003
EXTT0=
EXTT1=
EXTT2=
EXTT3=
EXTT4=
EXTT5=
EXTT6=
EXTT7=
EXTT8=
EXTT9=
EXTT10=
EXTT11=
PLAYORDER=
